<?xml version="1.0" standalone="no"?>
<!DOCTYPE svg PUBLIC "-//W3C//DTD SVG 20010904//EN"
 "http://www.w3.org/TR/2001/REC-SVG-20010904/DTD/svg10.dtd">
<svg version="1.0" xmlns="http://www.w3.org/2000/svg"
 width="1200.000000pt" height="630.000000pt" viewBox="0 0 1200.000000 630.000000"
 preserveAspectRatio="xMidYMid meet">

<g transform="translate(0.000000,630.000000) scale(0.100000,-0.100000)"
fill="#000000" stroke="none">
<path d="M5973 5031 c38 -6 56 -16 91 -50 94 -92 135 -207 143 -403 l6 -137
-56 -60 c-70 -77 -97 -144 -97 -246 0 -99 27 -169 91 -240 88 -96 209 -134
327 -102 l52 14 2 -51 1 -51 6 56 c6 53 9 59 64 109 68 62 102 124 116 210 19
116 -19 229 -104 309 -50 47 -54 55 -60 108 -15 142 -55 246 -129 341 -104
132 -256 204 -426 201 -68 -2 -71 -2 -27 -8z m538 -647 c49 -24 98 -74 125
-127 26 -49 31 -167 9 -224 -22 -57 -85 -128 -138 -155 -176 -89 -382 50 -382
257 0 209 203 340 386 249z"/>
<path d="M6345 4245 c-52 -51 -16 -145 55 -145 44 0 80 39 80 85 0 46 -36 85
-80 85 -19 0 -40 -9 -55 -25z"/>
<path d="M5888 5023 c6 -2 18 -2 25 0 6 3 1 5 -13 5 -14 0 -19 -2 -12 -5z"/>
<path d="M5630 4885 c-24 -25 -42 -45 -39 -45 3 0 25 20 49 45 24 25 42 45 39
45 -3 0 -25 -20 -49 -45z"/>
<path d="M5540 4770 c-6 -11 -8 -20 -6 -20 3 0 10 9 16 20 6 11 8 20 6 20 -3
0 -10 -9 -16 -20z"/>
<path d="M5471 4574 c0 -11 3 -14 6 -6 3 7 2 16 -1 19 -3 4 -6 -2 -5 -13z"/>
<path d="M5462 4494 c-2 -47 -5 -53 -40 -78 -83 -57 -124 -141 -130 -261 -6
-128 18 -187 109 -276 65 -64 68 -69 72 -120 l3 -54 2 54 c2 46 4 52 20 46
155 -60 343 17 419 174 25 50 28 67 28 161 0 96 -2 110 -28 158 -86 163 -267
234 -429 167 -14 -5 -17 1 -21 37 l-4 43 -1 -51z m279 -110 c53 -29 98 -80
126 -144 25 -55 21 -165 -7 -224 -102 -212 -371 -220 -485 -15 -26 47 -30 64
-30 134 0 70 4 87 30 134 78 141 230 189 366 115z"/>
<path d="M5555 4245 c-52 -51 -16 -145 55 -145 44 0 80 39 80 85 0 46 -36 85
-80 85 -19 0 -40 -9 -55 -25z"/>
<path d="M6523 3610 c0 -25 2 -35 4 -22 2 12 2 32 0 45 -2 12 -4 2 -4 -23z"/>
<path d="M5834 3601 c25 -28 85 -65 93 -57 4 3 2 6 -4 6 -6 0 -32 17 -59 37
-27 20 -40 27 -30 14z"/>
<path d="M6169 3593 c-13 -16 -12 -17 4 -4 16 13 21 21 13 21 -2 0 -10 -8 -17
-17z"/>
<path d="M6205 3559 c-49 -148 -221 -196 -335 -93 -23 21 -47 57 -59 87 -26
67 -26 41 -1 -58 41 -161 122 -240 226 -221 43 9 108 65 135 119 19 36 62 207
55 215 -2 2 -12 -20 -21 -49z"/>
<path d="M5502 3205 c0 -16 2 -22 5 -12 2 9 2 23 0 30 -3 6 -5 -1 -5 -18z"/>
<path d="M6502 3210 c0 -14 2 -19 5 -12 2 6 2 18 0 25 -3 6 -5 1 -5 -13z"/>
<path d="M6505 3089 c0 -112 6 -116 157 -98 l111 13 -59 13 c-117 26 -142 40
-175 99 -17 30 -32 54 -32 54 -1 0 -2 -37 -2 -81z"/>
<path d="M5473 3117 c-28 -58 -48 -70 -148 -93 l-80 -19 85 -11 c118 -17 135
-16 157 4 17 15 19 26 14 91 l-6 74 -22 -46z"/>
<path d="M5522 2835 c0 -16 2 -22 5 -12 2 9 2 23 0 30 -3 6 -5 -1 -5 -18z"/>
<path d="M5693 2700 c0 -47 2 -66 4 -42 2 23 2 61 0 85 -2 23 -4 4 -4 -43z"/>
<path d="M6312 2720 c0 -19 2 -27 5 -17 2 9 2 25 0 35 -3 9 -5 1 -5 -18z"/>
<path d="M5801 2724 c0 -11 3 -14 6 -6 3 7 2 16 -1 19 -3 4 -6 -2 -5 -13z"/>
<path d="M6202 2710 c0 -19 2 -27 5 -17 2 9 2 25 0 35 -3 9 -5 1 -5 -18z"/>
<path d="M5533 2680 c0 -25 2 -35 4 -22 2 12 2 32 0 45 -2 12 -4 2 -4 -23z"/>
<path d="M6362 2680 c0 -14 2 -19 5 -12 2 6 2 18 0 25 -3 6 -5 1 -5 -13z"/>
<path d="M6472 2680 c0 -14 2 -19 5 -12 2 6 2 18 0 25 -3 6 -5 1 -5 -13z"/>
<path d="M5792 2585 c0 -16 2 -22 5 -12 2 9 2 23 0 30 -3 6 -5 -1 -5 -18z"/>
<path d="M6212 2580 c0 -19 2 -27 5 -17 2 9 2 25 0 35 -3 9 -5 1 -5 -18z"/>
<path d="M5632 2560 c0 -14 2 -19 5 -12 2 6 2 18 0 25 -3 6 -5 1 -5 -13z"/>
<path d="M6372 2550 c0 -19 2 -27 5 -17 2 9 2 25 0 35 -3 9 -5 1 -5 -18z"/>
<path d="M5543 2535 c0 -22 2 -30 4 -17 2 12 2 30 0 40 -3 9 -5 -1 -4 -23z"/>
<path d="M6462 2530 c0 -19 2 -27 5 -17 2 9 2 25 0 35 -3 9 -5 1 -5 -18z"/>
<path d="M5782 2445 c0 -16 2 -22 5 -12 2 9 2 23 0 30 -3 6 -5 -1 -5 -18z"/>
<path d="M6222 2445 c0 -16 2 -22 5 -12 2 9 2 23 0 30 -3 6 -5 -1 -5 -18z"/>
<path d="M5340 2410 c-20 -7 -17 -8 18 -7 26 0 38 3 30 9 -15 9 -14 9 -48 -2z"/>
<path d="M6622 2411 c-8 -5 4 -8 29 -9 46 -2 49 2 9 11 -14 3 -31 3 -38 -2z"/>
<path d="M6090 2256 c0 -2 8 -10 18 -17 15 -13 16 -12 3 4 -13 16 -21 21 -21
13z"/>
<path d="M6174 1990 c-109 -16 -226 -94 -281 -187 -128 -218 -52 -490 168
-605 61 -31 69 -33 169 -33 98 0 109 2 168 32 l62 31 0 -56 c0 -66 -32 -142
-76 -184 -96 -90 -254 -74 -331 33 -54 75 -70 89 -103 89 -38 0 -90 -47 -90
-81 0 -34 36 -101 81 -153 27 -30 66 -58 117 -83 73 -36 80 -38 177 -38 89 0
106 3 157 28 88 43 152 107 195 195 l38 76 0 315 c0 308 -1 317 -23 374 -47
116 -182 227 -293 242 -24 4 -53 8 -64 9 -11 2 -43 0 -71 -4z m111 -181 c57
-14 126 -75 155 -135 48 -97 8 -231 -88 -298 -33 -24 -56 -31 -105 -34 -53 -3
-70 0 -116 25 -191 101 -161 380 49 444 36 11 56 10 105 -2z"/>
<path d="M7054 1990 c-303 -43 -447 -421 -256 -674 81 -107 199 -161 336 -154
148 8 265 87 333 226 37 73 38 80 38 181 0 88 -4 117 -24 170 -46 121 -176
230 -292 246 -24 4 -53 8 -64 9 -11 2 -43 0 -71 -4z m112 -181 c65 -17 138
-85 160 -151 51 -154 -56 -318 -209 -318 -89 0 -159 40 -204 118 -24 39 -28
58 -28 117 1 117 63 202 175 236 36 11 56 10 106 -2z"/>
<path d="M4759 1967 c-222 -77 -327 -326 -238 -562 17 -45 38 -76 88 -126 90
-90 149 -113 287 -114 94 0 105 2 162 32 34 17 62 27 62 22 0 -6 11 -21 25
-34 31 -32 75 -32 112 -1 l28 24 3 160 c2 88 -1 200 -7 248 -19 159 -95 275
-219 336 -89 44 -205 50 -303 15z m238 -183 c128 -73 157 -269 55 -378 -39
-41 -98 -66 -160 -66 -64 0 -106 16 -157 61 -136 120 -76 358 102 404 60 16
106 9 160 -21z"/>
<path d="M5632 1970 c-139 -50 -239 -176 -263 -334 -6 -35 -9 -146 -7 -245 l3
-181 27 -26 c34 -34 79 -36 112 -5 24 22 24 26 28 239 l3 217 31 54 c40 71 91
107 179 125 80 17 105 39 105 93 0 23 -8 42 -25 58 -20 21 -33 25 -82 24 -32
0 -82 -9 -111 -19z"/>
</g>
</svg>
