<?xml version="1.0" standalone="no"?>
<!DOCTYPE svg PUBLIC "-//W3C//DTD SVG 20010904//EN"
 "http://www.w3.org/TR/2001/REC-SVG-20010904/DTD/svg10.dtd">
<svg version="1.0" xmlns="http://www.w3.org/2000/svg"
 width="1200.000000pt" height="630.000000pt" viewBox="0 0 1200.000000 630.000000"
 preserveAspectRatio="xMidYMid meet">

<g transform="translate(0.000000,630.000000) scale(0.100000,-0.100000)"
fill="#000000" stroke="none">
<path d="M4682 5870 l3 -331 155 -91 c203 -119 410 -238 416 -238 2 0 4 148 4
329 l0 329 -107 63 c-60 34 -151 88 -203 119 -52 31 -134 78 -183 104 l-87 47
2 -331z"/>
<path d="M5332 5489 l3 -330 200 -115 c110 -63 237 -137 283 -165 45 -27 84
-49 87 -49 3 0 5 150 5 333 l-1 332 -132 74 c-178 100 -311 177 -374 218 -29
18 -57 33 -63 33 -7 0 -9 -109 -8 -331z"/>
<path d="M6360 5713 c-102 -58 -229 -131 -282 -161 l-98 -56 0 -333 0 -334 33
17 c17 9 122 69 232 133 110 63 226 129 257 146 l58 30 0 333 c0 182 -3 332
-7 332 -5 0 -91 -48 -193 -107z"/>
<path d="M5330 4718 l2 -353 -147 -420 c-178 -510 -310 -888 -338 -974 -17
-49 -19 -65 -9 -68 9 -4 12 -107 12 -472 l0 -467 88 -48 c48 -27 101 -58 117
-70 17 -12 75 -46 130 -75 55 -29 123 -68 150 -86 28 -17 70 -43 95 -57 25
-14 77 -44 117 -66 40 -23 81 -42 92 -42 11 0 75 32 142 70 66 39 125 70 129
70 5 0 10 3 12 8 2 6 126 79 268 159 19 11 61 35 93 53 32 18 61 39 64 47 5
13 -27 53 -42 53 -3 0 -65 34 -136 75 -72 41 -137 75 -144 75 -8 0 -49 -22
-92 -48 -131 -80 -278 -162 -293 -162 -13 0 -278 145 -332 182 -14 10 -32 18
-40 18 -24 0 -77 59 -83 93 -4 17 -5 127 -3 242 4 246 2 241 110 295 37 19 68
37 68 41 0 4 8 9 18 13 9 3 24 10 32 15 8 5 28 15 43 22 16 7 40 23 53 36 13
12 24 20 24 17 0 -3 9 0 20 6 19 10 20 21 20 205 0 107 -4 195 -9 195 -5 0
-14 -7 -21 -15 -7 -8 -15 -13 -19 -10 -4 2 -27 -9 -50 -25 -24 -15 -60 -36
-81 -45 -21 -10 -40 -26 -43 -36 -3 -10 -18 -21 -33 -24 -50 -11 -54 -14 -48
-32 4 -13 3 -14 -4 -5 -7 11 -17 9 -48 -8 -21 -12 -43 -26 -49 -30 -5 -4 -46
-27 -90 -51 -44 -23 -108 -60 -143 -82 -35 -22 -66 -37 -69 -34 -6 6 495 1456
508 1471 13 14 143 -66 147 -90 2 -11 -51 -260 -118 -554 -66 -293 -120 -539
-120 -547 0 -7 6 -13 13 -13 13 0 32 80 209 868 37 166 56 232 66 232 7 0 32
-13 56 -29 l42 -29 69 -304 c135 -601 153 -683 150 -687 -2 -2 -42 18 -90 43
-47 26 -90 44 -95 41 -12 -7 -13 -374 -2 -392 4 -6 23 -20 42 -31 67 -40 135
-79 205 -119 114 -64 120 -68 127 -78 4 -5 8 -105 8 -221 0 -188 2 -213 18
-226 44 -38 309 -188 332 -188 7 0 10 136 10 415 l0 416 -25 24 c-21 18 -71
158 -252 702 -124 373 -232 683 -239 689 -11 8 -14 60 -16 230 l-3 219 -135
77 c-74 43 -171 99 -215 124 -109 64 -217 124 -222 124 -2 0 -3 -159 -3 -352z
m800 -1114 c116 -345 210 -634 210 -640 0 -13 -48 11 -190 98 -41 25 -104 60
-139 79 -35 19 -69 43 -76 54 -7 11 -33 112 -59 225 -25 113 -73 326 -106 474
-34 148 -60 275 -58 282 2 9 33 -4 97 -41 51 -30 95 -55 97 -55 2 0 4 37 4 82
0 45 2 79 5 76 3 -3 100 -288 215 -634z"/>
<path d="M5470 2435 l0 -255 30 0 30 0 0 104 c0 57 3 111 6 120 7 17 30 22 36
7 2 -5 26 -34 53 -63 28 -29 72 -79 98 -110 44 -53 52 -58 88 -58 l40 0 -90
103 c-49 56 -100 113 -115 126 -14 14 -26 32 -26 40 0 9 47 63 105 120 57 58
102 108 100 112 -3 4 -22 5 -42 4 -33 -3 -50 -17 -136 -106 -69 -73 -101 -99
-106 -90 -5 7 -6 43 -3 81 7 96 -1 120 -38 120 l-30 0 0 -255z"/>
<path d="M4707 1313 c-7 -12 -147 -398 -147 -406 0 -12 57 -8 67 6 6 6 16 29
23 50 l12 38 85 -3 85 -3 17 -45 c14 -39 21 -45 49 -48 21 -2 32 1 32 10 0 11
-103 309 -131 381 -10 23 -17 27 -50 27 -21 0 -40 -3 -42 -7z m77 -167 c14
-37 26 -72 26 -77 0 -5 -27 -9 -60 -9 -70 0 -70 1 -39 87 11 32 23 64 25 72 7
22 20 3 48 -73z"/>
<path d="M5320 1210 c-19 -4 -45 -12 -58 -19 -18 -10 -26 -9 -44 4 -28 19
-104 19 -138 0 -22 -12 -27 -11 -42 2 -9 8 -25 13 -35 11 -16 -3 -18 -17 -21
-156 l-3 -152 36 0 35 0 0 114 c0 107 1 116 22 130 27 19 72 21 86 3 6 -7 13
-64 14 -128 l3 -114 29 -3 c16 -2 33 2 38 10 4 7 8 56 8 108 -1 52 -1 100 -1
106 1 13 44 34 69 34 41 -1 47 -15 52 -137 l5 -118 33 -3 32 -3 0 129 c0 114
-2 132 -20 154 -22 29 -50 36 -100 28z"/>
<path d="M6205 1212 c-38 -5 -81 -36 -100 -72 -17 -33 -20 -126 -5 -166 24
-62 90 -92 175 -80 95 15 144 141 94 243 -29 59 -86 86 -164 75z m84 -78 c28
-35 30 -132 4 -162 -63 -75 -156 14 -129 123 16 65 87 87 125 39z"/>
<path d="M6600 1210 c-19 -3 -45 -12 -58 -19 -20 -11 -25 -10 -36 4 -7 10 -21
16 -32 13 -18 -3 -19 -14 -22 -156 l-3 -153 33 3 33 3 5 115 c5 110 6 115 30
127 32 16 62 16 83 1 13 -11 17 -34 19 -128 l3 -115 33 -3 32 -3 0 133 c0 92
-4 140 -12 151 -17 23 -65 35 -108 27z"/>
<path d="M5538 1199 c-10 -5 -18 -19 -18 -30 0 -18 5 -19 68 -14 77 7 89 1 94
-40 3 -30 3 -30 -57 -35 -75 -7 -103 -22 -121 -66 -12 -29 -12 -39 0 -68 19
-46 48 -60 105 -51 25 4 69 8 96 9 l50 1 3 95 c5 139 -3 177 -38 195 -33 17
-155 20 -182 4z m142 -204 c0 -29 -5 -37 -27 -46 -40 -15 -66 -7 -77 23 -14
39 6 58 60 58 44 0 44 0 44 -35z"/>
<path d="M5814 1195 c-14 -34 3 -44 80 -47 l76 -3 -76 -89 c-129 -153 -128
-156 35 -156 99 0 120 3 125 16 12 31 5 34 -74 34 -57 0 -80 4 -80 13 0 6 34
50 75 97 61 68 75 91 75 117 l0 33 -115 0 c-94 0 -117 -3 -121 -15z"/>
<path d="M5893 702 c-45 -5 -83 -52 -83 -101 0 -47 13 -60 111 -104 86 -39
104 -67 74 -114 -25 -37 -61 -47 -124 -34 -59 12 -73 8 -50 -14 12 -12 68 -19
137 -16 13 1 37 14 53 30 60 60 27 140 -72 175 -67 23 -99 51 -99 86 0 50 53
75 130 60 51 -9 61 -6 39 14 -16 15 -68 23 -116 18z"/>
<path d="M5236 684 c-9 -24 -7 -337 2 -352 12 -18 204 -13 210 6 3 9 -19 12
-86 12 l-90 0 -4 66 c-1 36 -1 70 2 75 3 4 39 9 80 11 97 4 94 22 -4 26 l-74
3 -4 60 c-1 33 1 64 7 70 5 5 46 9 92 9 67 0 83 3 83 15 0 23 -205 22 -214 -1z"/>
<path d="M5510 511 c0 -163 2 -191 15 -191 12 0 15 16 15 80 0 49 4 80 11 80
5 0 47 -36 92 -80 46 -44 91 -80 102 -80 14 0 -6 25 -73 93 -50 51 -92 96 -92
101 0 5 35 44 78 88 82 84 92 98 69 98 -7 0 -49 -36 -93 -80 -43 -44 -82 -80
-86 -80 -4 0 -8 35 -10 77 -2 50 -7 78 -15 81 -10 3 -13 -39 -13 -187z"/>
</g>
</svg>
